<svg xmlns="http://www.w3.org/2000/svg" viewBox="0 0 167.48 141.5"><defs><style>.cls-1{fill:#0091bc;}.cls-2{fill:#2f2f7e;}</style></defs><g id="Layer_2" data-name="Layer 2"><g id="Layer_1-2" data-name="Layer 1"><path class="cls-1" d="M140.89.29c-3.06.14-4.81,2.08-4.81,5.35V15.92H146.9c3-.12,4.81-2.07,4.81-5.37V.29Z"/><path class="cls-1" d="M116.88,5.64V15.93H127.7c3-.13,4.81-2.08,4.81-5.38V.29H121.69c-3.06.14-4.81,2.08-4.81,5.35"/><path class="cls-1" d="M29.08,2.23A6.55,6.55,0,0,0,26.67.58,8.62,8.62,0,0,0,23.38,0a8.71,8.71,0,0,0-3.3.58,6.55,6.55,0,0,0-2.42,1.63,7.16,7.16,0,0,0-1.48,2.55,10.45,10.45,0,0,0-.5,3.31,10.54,10.54,0,0,0,.5,3.31A7.3,7.3,0,0,0,17.66,14a6.66,6.66,0,0,0,2.42,1.68,8.52,8.52,0,0,0,3.3.6h.37l.37,0,2.74,2.74h3.8l-3.54-3.52a7.24,7.24,0,0,0,1.82-1.35,6.41,6.41,0,0,0,1.23-1.71,8.45,8.45,0,0,0,.69-2,11.8,11.8,0,0,0,.21-2.26,10,10,0,0,0-.51-3.29,7,7,0,0,0-1.48-2.55m-1.53,7.91A5.6,5.6,0,0,1,26.79,12a4.06,4.06,0,0,1-1.36,1.31,4,4,0,0,1-2.05.49,3.9,3.9,0,0,1-2-.49A4,4,0,0,1,20,12a5.85,5.85,0,0,1-.78-1.8,8.88,8.88,0,0,1,0-4.1A5.71,5.71,0,0,1,20,4.27,4.29,4.29,0,0,1,21.36,3a3.9,3.9,0,0,1,2-.5,4,4,0,0,1,2,.48,4.07,4.07,0,0,1,1.36,1.28A5.34,5.34,0,0,1,27.54,6a8.85,8.85,0,0,1,.25,2.05,9,9,0,0,1-.24,2.07"/><rect class="cls-1" x="34.53" y="0.26" width="3.15" height="15.7"/><polygon class="cls-1" points="59.29 0.26 56.35 12.81 56.3 12.81 53.53 0.26 49.26 0.26 46.58 12.81 46.54 12.81 43.62 0.26 40.3 0.26 44.46 15.97 48.54 15.97 51.33 3.42 51.37 3.42 54.2 15.97 58.26 15.97 62.35 0.26 59.29 0.26"/><path class="cls-1" d="M67.43,12.37H73.8L75.15,16h3.48L72.47.26H68.91L62.79,16h3.26ZM70.6,3.42h0l2.28,6.47H68.33Z"/><path class="cls-1" d="M101.2,100.19v5.88s-.24,6.09-1.26,8.66a17.25,17.25,0,0,1-2.85,4.75,17.41,17.41,0,0,1-25.41,1.39,8.88,8.88,0,0,0-1-.8,4.69,4.69,0,0,0-1.06-.55,2.2,2.2,0,0,0-1.47-.06l-.26.14a10.57,10.57,0,0,0-1.46,1.08A18.22,18.22,0,0,0,64,123.07a26.91,26.91,0,0,0-3,4.23c-.1.17-.19.34-.28.51A6.06,6.06,0,0,0,62,133.18l.18.3a15.17,15.17,0,0,0,1.28,1.22l.37.34c10.58,8.84,25.12,6.49,30.88,5.07a21.3,21.3,0,0,0,2.61-.74l.23-.08c.71-.25,1.28-.48,1.8-.72l.3-.12a5.2,5.2,0,0,0,.47-.24l.11-.07a29.9,29.9,0,0,0,12-10.36,29.11,29.11,0,0,0,4.67-16.56V100.34a35.75,35.75,0,0,1-8-6,36.11,36.11,0,0,1-7.71,5.81"/><path class="cls-2" d="M146.57,23.69l-.14-.06a33.65,33.65,0,0,0-4.37-1.38l-.55-.12c-.71-.16-1.42-.3-2.14-.41l-.15,0c-.68-.1-1.37-.18-2.06-.23l-.59,0c-.74-.05-1.48-.08-2.23-.08h0c-.83,0-1.65,0-2.47.1l-.52,0c-.79.07-1.56.17-2.33.29l-.51.09c-.74.14-1.48.29-2.21.47l-.19,0c-.81.21-1.59.45-2.37.72l-.34.11c-.82.29-1.62.61-2.4.95h0a33.32,33.32,0,0,0-18.41,20.92.29.29,0,0,0,0,.09c-.29,1-.53,1.94-.73,2.94,0,.06,0,.11,0,.17-.19,1-.34,2-.44,3h0a.91.91,0,0,1,0,.17c0,.51-.08,1-.11,1.52v.3c0,.41,0,.81,0,1.23h0V68.81h0c0,.55,0,1.1-.08,1.64,0,.23-.06.47-.09.7s-.08.59-.14.89-.12.57-.19.85-.11.46-.17.68-.19.61-.29.91-.14.39-.22.59-.24.6-.37.9l-.27.55c-.14.29-.29.58-.45.86s-.22.37-.33.55-.33.54-.5.79-.29.38-.43.57l-.53.7-.2.21c-.33.39-.68.76-1.05,1.12l-.41.38c-.31.27-.62.55-1,.8l-.52.4c-.31.22-.62.44-.94.64s-.4.25-.6.36-.65.36-1,.53-.42.21-.63.3-.69.29-1,.42-.43.17-.66.24-.71.21-1.07.3-.46.13-.69.18-.72.13-1.08.18-.49.09-.75.11-.67,0-1,.06-.54,0-.81,0l-.48,0c-.38,0-.75,0-1.12-.06s-.53-.06-.79-.1-.53-.07-.8-.12-.56-.12-.84-.18l-.7-.18-.84-.26-.65-.24c-.28-.11-.55-.21-.82-.33s-.41-.2-.62-.3-.53-.25-.79-.4l-.53-.32a15.75,15.75,0,0,1-1.47-1,17.54,17.54,0,0,1-5.06-6c-.17.71-.34,1.43-.55,2.15A36.45,36.45,0,0,1,60.4,92.29a33.38,33.38,0,0,0,11.1,7.32l.14,0A32.77,32.77,0,0,0,76,101l.54.13c.71.15,1.42.3,2.14.41l.16,0c.68.1,1.36.17,2.06.23l.58,0c.74,0,1.48.09,2.24.09h0c.83,0,1.66,0,2.48-.1l.51,0c.79-.07,1.56-.17,2.33-.3.17,0,.34-.06.51-.09.75-.13,1.48-.28,2.21-.46l.2,0c.8-.21,1.58-.45,2.36-.71l.35-.12c.81-.29,1.61-.6,2.39-1h0A33.37,33.37,0,0,0,109,90.18v0c.36-.42.71-.86,1-1.3l0,0c.33-.44.66-.89,1-1.35l0-.07c.3-.44.59-.88.87-1.34a1,1,0,0,1,.1-.17c.26-.43.51-.85.74-1.29l.18-.34c.21-.39.41-.78.6-1.18.09-.18.17-.37.26-.56s.31-.67.45-1,.24-.61.36-.92.19-.47.27-.71c.2-.55.39-1.12.55-1.69l0-.08c.28-1,.52-1.95.72-2.95l0-.16c.18-1,.33-2,.43-3,0-.06,0-.12,0-.17.09-1,.15-2,.15-3.06h0V54.48c0-.55,0-1.1.08-1.64,0-.24.06-.47.09-.71s.09-.59.14-.88.12-.57.19-.86.11-.45.18-.68.18-.61.29-.91.13-.39.21-.58.24-.61.37-.91l.27-.55c.14-.29.29-.57.45-.86l.33-.55c.17-.26.33-.53.51-.79s.28-.37.42-.56.35-.48.54-.7l.18-.21c.34-.39.69-.77,1.06-1.13.14-.12.28-.24.41-.37.31-.28.62-.55,1-.81l.52-.39c.31-.23.63-.44,1-.65l.59-.36c.32-.18.65-.36,1-.52l.64-.31c.34-.15.68-.28,1-.41l.66-.25c.35-.11.71-.2,1.07-.3s.46-.13.69-.18l1.08-.18.75-.11,1-.06c.27,0,.53,0,.8,0l.48,0c.38,0,.75,0,1.12.06l.8.1.79.12.84.19c.24.05.47.11.7.18s.57.16.84.26.44.15.65.24.56.21.83.33l.61.29c.27.13.54.26.8.4l.54.33a17.67,17.67,0,0,1,8.46,14.94V68.81c0,.56,0,1.11-.08,1.65,0,.23-.06.47-.09.7s-.09.59-.14.89-.12.57-.19.85-.11.46-.18.68-.18.61-.28.91-.14.39-.22.59-.24.6-.37.9l-.27.55c-.14.29-.29.58-.45.86s-.22.37-.33.55-.33.54-.51.79-.28.38-.42.57-.35.47-.54.7l-.19.21c-.34.39-.68.76-1.05,1.12l-.41.38c-.31.27-.62.55-.95.8-.17.14-.35.27-.53.4s-.62.44-.94.64-.39.25-.59.36-.65.36-1,.53-.42.21-.64.3-.68.29-1,.42l-.66.24c-.35.12-.71.21-1.07.3l-.69.18c-.36.08-.72.13-1.08.18s-.5.09-.75.11-.68,0-1,.06-.53,0-.8,0l-.48,0c-.38,0-.75,0-1.12-.06s-.53-.06-.8-.1-.53-.07-.79-.12-.56-.12-.84-.18l-.7-.18-.84-.26-.65-.24c-.28-.11-.56-.21-.83-.33l-.61-.3c-.27-.13-.54-.25-.8-.4s-.34-.21-.52-.32a14.53,14.53,0,0,1-1.47-1,17.54,17.54,0,0,1-5.07-6c-.16.71-.34,1.42-.55,2.14A36.08,36.08,0,0,1,111,92.3a33.34,33.34,0,0,0,11.12,7.31l.14,0a32.18,32.18,0,0,0,4.37,1.38l.55.13c.71.15,1.42.3,2.14.41l.15,0c.68.1,1.37.17,2.06.23l.59,0c.74,0,1.48.09,2.23.09h0c.83,0,1.66,0,2.47-.1l.52,0c.79-.07,1.56-.17,2.33-.3.17,0,.34-.06.51-.09.74-.13,1.48-.28,2.2-.46l.21,0c.8-.21,1.58-.45,2.36-.71l.35-.12c.81-.29,1.61-.6,2.39-1h0a33.27,33.27,0,0,0,18.41-20.92l0-.08c.28-1,.52-1.95.72-2.95a.9.9,0,0,1,0-.16c.18-1,.33-2,.43-3a.91.91,0,0,1,0-.17c.09-1,.15-2,.15-3.07V54.48a33.2,33.2,0,0,0-20.91-30.79"/><path class="cls-2" d="M64.94,78.13c.28-1,.52-1.95.72-2.95l0-.16c.19-1,.33-2,.43-3a1,1,0,0,0,0-.17c.1-1,.15-2,.15-3.07l.07-14.33a17.5,17.5,0,0,1,12.72-16.8l.17,0a14,14,0,0,1,1.46-.32l.46-.08.35,0,.62-.07.8,0c.27,0,.53,0,.81,0l.48,0q.56,0,1.11.06l.8.1.79.12.84.19c.24.05.47.11.7.18s.57.16.85.26.43.15.65.24.55.21.82.33l.61.29c.27.13.54.26.8.4l.54.33c.5.3,1,.63,1.45,1a17.63,17.63,0,0,1,5.07,6c.07-.3.14-.59.22-.9s.21-.81.33-1.23c.19-.63.39-1.25.61-1.87.12-.34.26-.68.4-1s.19-.52.3-.78c.19-.46.4-.91.61-1.36.06-.13.11-.27.18-.4.25-.52.52-1,.79-1.55,0-.05,0-.1.08-.14.3-.56.62-1.1,1-1.64h0A37.08,37.08,0,0,1,107.09,31a32.64,32.64,0,0,0-4.53-3.76l0,0a32.64,32.64,0,0,0-18.76-5.88c-1,0-2,.06-3,.15h0l-.22,0-.93.1-1.18.17-.51.09c-.74.14-1.48.29-2.21.47l-.19,0q-1.2.31-2.37.72l-.34.11c-.82.29-1.61.61-2.4.95h0A33.35,33.35,0,0,0,52,45.08s0,.06,0,.09c-.28,1-.53,1.94-.72,2.94l0,.17a28.69,28.69,0,0,0-.43,3s0,.11,0,.17c-.09,1-.14,2-.14,3.06V68.81h0a14.88,14.88,0,0,1-.09,1.64c0,.23-.06.47-.09.7s-.08.59-.13.89-.13.57-.2.85-.11.46-.17.68-.19.61-.29.91l-.21.59c-.12.3-.25.6-.38.9a5.6,5.6,0,0,1-.27.55c-.14.29-.28.58-.44.86s-.23.37-.34.55-.32.54-.5.79-.28.38-.43.57-.34.47-.53.7l-.19.21c-.34.39-.69.76-1.06,1.12l-.41.38c-.31.27-.62.55-.94.8l-.53.4c-.31.22-.62.44-.94.64s-.4.25-.6.36-.65.36-1,.53-.42.21-.63.3-.69.29-1,.42l-.66.24c-.36.12-.72.21-1.08.3s-.46.13-.69.18-.72.13-1.08.18-.49.09-.74.11-.68,0-1,.06-.54,0-.81,0l-.48,0-.85,0-.31,0-.75-.1L30.19,86l-.4-.07-.33-.08-.54-.12-.13,0a17.49,17.49,0,0,1-13-16.89V54.48a16.38,16.38,0,0,1,.12-1.93l.07-.88v0h0l.08-1.2a21.42,21.42,0,0,1,1.9-6.65,20.18,20.18,0,0,1,2.69-4.25,19.21,19.21,0,0,1,3.53-3.34l.43-.34.09-.07a3.73,3.73,0,0,0,.85-1l.05-.09c0-.06.07-.12.11-.17a2.31,2.31,0,0,0,.29-.8l0-.18a6.52,6.52,0,0,0-.86-2.75l-.05-.1a16.47,16.47,0,0,0-3.79-4.34l-.35-.29h0L20.76,26h0a5.5,5.5,0,0,0-.48-.31,5.85,5.85,0,0,0-6.57,0,14.27,14.27,0,0,0-3.38,2.87,36.07,36.07,0,0,0-10,22l0,.33,0,.18a33.37,33.37,0,0,0-.18,3.42L0,68.81a33.21,33.21,0,0,0,20.9,30.8l.14,0A32.77,32.77,0,0,0,25.42,101l.54.13c.71.15,1.42.3,2.14.41l.16,0,1.31.16.62.06h.13l.59,0H31l.84.05,1.06,0h.21c.84,0,1.66,0,2.48-.1l.52,0c.78-.07,1.56-.17,2.32-.3.18,0,.34-.06.52-.09.74-.13,1.47-.28,2.2-.46l.2,0c.8-.21,1.59-.45,2.36-.71l.35-.12c.81-.29,1.61-.6,2.39-1h0A33.32,33.32,0,0,0,64.92,78.21a.24.24,0,0,1,0-.08"/></g></g></svg>